<svg width="42" height="42" viewBox="0 0 42 42" fill="none" xmlns="http://www.w3.org/2000/svg">
<path d="M5.86754 15.6633C7.00765 10.8028 10.8028 7.00765 15.6633 5.86753C19.1734 5.04415 22.8266 5.04416 26.3367 5.86753C31.1972 7.00765 34.9924 10.8028 36.1325 15.6633C36.9558 19.1734 36.9558 22.8266 36.1325 26.3367C34.9924 31.1972 31.1972 34.9924 26.3367 36.1325C22.8266 36.9558 19.1734 36.9558 15.6633 36.1325C10.8028 34.9924 7.00765 31.1972 5.86754 26.3368C5.04415 22.8266 5.04415 19.1734 5.86754 15.6633Z" fill="#91268F" stroke="#91268F" stroke-width="2"/>
<path d="M14.875 21L27.125 21M27.125 21L22.75 16.625M27.125 21L22.75 25.375" stroke="white" stroke-width="2" stroke-linecap="round" stroke-linejoin="round"/>
</svg>
