<svg width="32" height="32" viewBox="0 0 32 32" fill="none" xmlns="http://www.w3.org/2000/svg">
<path d="M17.6449 16L22.6616 10.995C22.8813 10.7753 23.0047 10.4774 23.0047 10.1667C23.0047 9.85599 22.8813 9.55803 22.6616 9.33835C22.4419 9.11866 22.1439 8.99524 21.8333 8.99524C21.5226 8.99524 21.2246 9.11866 21.0049 9.33835L15.9999 14.355L10.9949 9.33835C10.7752 9.11866 10.4773 8.99524 10.1666 8.99524C9.85591 8.99524 9.55795 9.11866 9.33826 9.33835C9.11857 9.55803 8.99516 9.85599 8.99516 10.1667C8.99516 10.4774 9.11857 10.7753 9.33826 10.995L14.3549 16L9.33826 21.005C9.22891 21.1135 9.14212 21.2425 9.08289 21.3847C9.02366 21.5268 8.99316 21.6793 8.99316 21.8333C8.99316 21.9874 9.02366 22.1399 9.08289 22.282C9.14212 22.4242 9.22891 22.5532 9.33826 22.6617C9.44672 22.771 9.57575 22.8578 9.71792 22.9171C9.86009 22.9763 10.0126 23.0068 10.1666 23.0068C10.3206 23.0068 10.4731 22.9763 10.6153 22.9171C10.7574 22.8578 10.8865 22.771 10.9949 22.6617L15.9999 17.645L21.0049 22.6617C21.1134 22.771 21.2424 22.8578 21.3846 22.9171C21.5268 22.9763 21.6792 23.0068 21.8333 23.0068C21.9873 23.0068 22.1398 22.9763 22.2819 22.9171C22.4241 22.8578 22.5531 22.771 22.6616 22.6617C22.7709 22.5532 22.8577 22.4242 22.917 22.282C22.9762 22.1399 23.0067 21.9874 23.0067 21.8333C23.0067 21.6793 22.9762 21.5268 22.917 21.3847C22.8577 21.2425 22.7709 21.1135 22.6616 21.005L17.6449 16Z" fill="#070606"/>
</svg>
