<svg width="32" height="32" viewBox="0 0 32 32" fill="none" xmlns="http://www.w3.org/2000/svg">
<g clip-path="url(#clip0_666_1283)">
<path d="M22.92 0.292C22.7326 0.105062 22.4787 5.6238e-05 22.214 0L9.786 0C9.5213 5.6238e-05 9.26741 0.105062 9.08 0.292L0.292 9.08C0.105062 9.26741 5.6238e-05 9.5213 0 9.786L0 22.214C5.6238e-05 22.4787 0.105062 22.7326 0.292 22.92L9.08 31.708C9.26741 31.8949 9.5213 31.9999 9.786 32H22.214C22.4787 31.9999 22.7326 31.8949 22.92 31.708L31.708 22.92C31.8949 22.7326 31.9999 22.4787 32 22.214V9.786C31.9999 9.5213 31.8949 9.26741 31.708 9.08L22.92 0.292ZM10.708 9.292L16 14.586L21.292 9.292C21.385 9.19902 21.4954 9.12527 21.6168 9.07495C21.7383 9.02463 21.8685 8.99874 22 8.99874C22.1315 8.99874 22.2617 9.02463 22.3832 9.07495C22.5046 9.12527 22.615 9.19902 22.708 9.292C22.801 9.38498 22.8747 9.49535 22.925 9.61683C22.9754 9.73831 23.0013 9.86851 23.0013 10C23.0013 10.1315 22.9754 10.2617 22.925 10.3832C22.8747 10.5046 22.801 10.615 22.708 10.708L17.414 16L22.708 21.292C22.801 21.385 22.8747 21.4954 22.925 21.6168C22.9754 21.7383 23.0013 21.8685 23.0013 22C23.0013 22.1315 22.9754 22.2617 22.925 22.3832C22.8747 22.5046 22.801 22.615 22.708 22.708C22.615 22.801 22.5046 22.8747 22.3832 22.925C22.2617 22.9754 22.1315 23.0013 22 23.0013C21.8685 23.0013 21.7383 22.9754 21.6168 22.925C21.4954 22.8747 21.385 22.801 21.292 22.708L16 17.414L10.708 22.708C10.615 22.801 10.5046 22.8747 10.3832 22.925C10.2617 22.9754 10.1315 23.0013 10 23.0013C9.86851 23.0013 9.73831 22.9754 9.61683 22.925C9.49535 22.8747 9.38498 22.801 9.292 22.708C9.19902 22.615 9.12527 22.5046 9.07495 22.3832C9.02463 22.2617 8.99874 22.1315 8.99874 22C8.99874 21.8685 9.02463 21.7383 9.07495 21.6168C9.12527 21.4954 9.19902 21.385 9.292 21.292L14.586 16L9.292 10.708C9.10423 10.5202 8.99874 10.2656 8.99874 10C8.99874 9.73445 9.10423 9.47977 9.292 9.292C9.47977 9.10423 9.73445 8.99874 10 8.99874C10.2656 8.99874 10.5202 9.10423 10.708 9.292Z" fill="#CB1818"/>
</g>
<defs>
<clipPath id="clip0_666_1283">
<rect width="32" height="32" fill="white"/>
</clipPath>
</defs>
</svg>
